<svg id="visual" viewBox="0 0 2024 800" width="2024" height="800" xmlns="http://www.w3.org/2000/svg" xmlns:xlink="http://www.w3.org/1999/xlink" version="1.1"><rect x="0" y="0" width="2024" height="800" fill="#001220"></rect><defs><linearGradient id="grad1_0" x1="60.5%" y1="0%" x2="100%" y2="100%"><stop offset="-0.5999999999999979%" stop-color="#001220" stop-opacity="1"></stop><stop offset="100.6%" stop-color="#001220" stop-opacity="1"></stop></linearGradient></defs><defs><linearGradient id="grad2_0" x1="0%" y1="0%" x2="39.5%" y2="100%"><stop offset="-0.5999999999999979%" stop-color="#001220" stop-opacity="1"></stop><stop offset="100.6%" stop-color="#001220" stop-opacity="1"></stop></linearGradient></defs><g transform="translate(2024, 0)"><path d="M0 720C-72 658.9 -144.1 597.9 -237.3 572.8C-330.5 547.7 -444.8 558.7 -509.1 509.1C-573.4 459.5 -587.6 349.4 -614.4 254.5C-641.2 159.5 -680.6 79.8 -720 0L0 0Z" fill="#3c49fa"></path></g><g transform="translate(0, 800)"><path d="M0 -720C86.7 -696.2 173.4 -672.4 266.3 -643C359.3 -613.7 458.3 -578.8 509.1 -509.1C559.9 -439.4 562.3 -334.8 589.4 -244.2C616.5 -153.5 668.3 -76.7 720 0L0 0Z" fill="#3c49fa"></path></g></svg>
