<svg xmlns="http://www.w3.org/2000/svg" width="256" height="256" viewBox="0 0 100 100"><rect width="100" height="100" rx="50" fill="#000000"></rect><path d="M16.61 82.94L16.61 79.34L23.54 79.34Q30.20 63.68 36.82 48.20Q43.43 32.72 50.00 17.06L50.00 17.06Q56.57 32.72 63.19 48.20Q69.80 63.68 76.37 79.34L76.37 79.34L83.39 79.34L83.39 82.94L66.02 82.94L66.02 79.34L72.59 79.34Q70.07 73.49 67.64 67.69Q65.21 61.88 62.69 55.94L62.69 55.94L37.31 55.94Q34.79 61.88 32.36 67.69Q29.93 73.49 27.41 79.34L27.41 79.34L33.98 79.34L33.98 82.94L16.61 82.94ZM61.07 52.34L50.81 27.95L50.00 25.43Q49.82 25.70 49.55 26.78L49.55 26.78Q49.37 27.32 49.10 27.95L49.10 27.95Q48.20 30.29 46.99 33.21Q45.77 36.14 44.42 39.34Q43.07 42.53 41.68 45.86Q40.28 49.19 38.93 52.34L38.93 52.34L61.07 52.34Z" fill="#fff"></path></svg>