<svg id="visual" viewBox="0 0 400 200" width="400" height="200" xmlns="http://www.w3.org/2000/svg" xmlns:xlink="http://www.w3.org/1999/xlink" version="1.1"><rect x="0" y="0" width="400" height="200" fill="#001220"></rect><defs><linearGradient id="grad1_0" x1="50%" y1="100%" x2="100%" y2="0%"><stop offset="10%" stop-color="#7f5af0" stop-opacity="1"></stop><stop offset="90%" stop-color="#7f5af0" stop-opacity="1"></stop></linearGradient></defs><defs><linearGradient id="grad1_1" x1="50%" y1="100%" x2="100%" y2="0%"><stop offset="10%" stop-color="#7f5af0" stop-opacity="1"></stop><stop offset="90%" stop-color="#4453ca" stop-opacity="1"></stop></linearGradient></defs><defs><linearGradient id="grad1_2" x1="50%" y1="100%" x2="100%" y2="0%"><stop offset="10%" stop-color="#0047a0" stop-opacity="1"></stop><stop offset="90%" stop-color="#4453ca" stop-opacity="1"></stop></linearGradient></defs><defs><linearGradient id="grad1_3" x1="50%" y1="100%" x2="100%" y2="0%"><stop offset="10%" stop-color="#0047a0" stop-opacity="1"></stop><stop offset="90%" stop-color="#003774" stop-opacity="1"></stop></linearGradient></defs><defs><linearGradient id="grad1_4" x1="50%" y1="100%" x2="100%" y2="0%"><stop offset="10%" stop-color="#002548" stop-opacity="1"></stop><stop offset="90%" stop-color="#003774" stop-opacity="1"></stop></linearGradient></defs><defs><linearGradient id="grad1_5" x1="50%" y1="100%" x2="100%" y2="0%"><stop offset="10%" stop-color="#002548" stop-opacity="1"></stop><stop offset="90%" stop-color="#001220" stop-opacity="1"></stop></linearGradient></defs><defs><linearGradient id="grad2_0" x1="0%" y1="100%" x2="50%" y2="0%"><stop offset="10%" stop-color="#7f5af0" stop-opacity="1"></stop><stop offset="90%" stop-color="#7f5af0" stop-opacity="1"></stop></linearGradient></defs><defs><linearGradient id="grad2_1" x1="0%" y1="100%" x2="50%" y2="0%"><stop offset="10%" stop-color="#4453ca" stop-opacity="1"></stop><stop offset="90%" stop-color="#7f5af0" stop-opacity="1"></stop></linearGradient></defs><defs><linearGradient id="grad2_2" x1="0%" y1="100%" x2="50%" y2="0%"><stop offset="10%" stop-color="#4453ca" stop-opacity="1"></stop><stop offset="90%" stop-color="#0047a0" stop-opacity="1"></stop></linearGradient></defs><defs><linearGradient id="grad2_3" x1="0%" y1="100%" x2="50%" y2="0%"><stop offset="10%" stop-color="#003774" stop-opacity="1"></stop><stop offset="90%" stop-color="#0047a0" stop-opacity="1"></stop></linearGradient></defs><defs><linearGradient id="grad2_4" x1="0%" y1="100%" x2="50%" y2="0%"><stop offset="10%" stop-color="#003774" stop-opacity="1"></stop><stop offset="90%" stop-color="#002548" stop-opacity="1"></stop></linearGradient></defs><defs><linearGradient id="grad2_5" x1="0%" y1="100%" x2="50%" y2="0%"><stop offset="10%" stop-color="#001220" stop-opacity="1"></stop><stop offset="90%" stop-color="#002548" stop-opacity="1"></stop></linearGradient></defs><g transform="translate(400, 200)"><path d="M-130 0C-124 -12.2 -118 -24.5 -114.1 -37.1C-110.2 -49.7 -108.4 -62.6 -102.7 -74.6C-97.1 -86.7 -87.7 -97.8 -76.4 -105.2C-65.1 -112.6 -52 -116.3 -38.9 -119.8C-25.9 -123.4 -12.9 -126.7 0 -130L0 0Z" fill="#001c34"></path><path d="M-108.3 0C-103.3 -10.2 -98.4 -20.4 -95.1 -30.9C-91.8 -41.4 -90.3 -52.2 -85.6 -62.2C-80.9 -72.2 -73.1 -81.5 -63.7 -87.6C-54.3 -93.8 -43.3 -96.9 -32.4 -99.9C-21.6 -102.8 -10.8 -105.6 0 -108.3L0 0Z" fill="#002e5e"></path><path d="M-86.7 0C-82.7 -8.2 -78.7 -16.3 -76.1 -24.7C-73.5 -33.1 -72.3 -41.8 -68.5 -49.8C-64.7 -57.8 -58.5 -65.2 -50.9 -70.1C-43.4 -75.1 -34.7 -77.5 -26 -79.9C-17.3 -82.2 -8.6 -84.5 0 -86.7L0 0Z" fill="#003f8a"></path><path d="M-65 0C-62 -6.1 -59 -12.2 -57.1 -18.5C-55.1 -24.8 -54.2 -31.3 -51.4 -37.3C-48.6 -43.3 -43.8 -48.9 -38.2 -52.6C-32.6 -56.3 -26 -58.2 -19.5 -59.9C-12.9 -61.7 -6.5 -63.3 0 -65L0 0Z" fill="#264db6"></path><path d="M-43.3 0C-41.3 -4.1 -39.3 -8.2 -38 -12.4C-36.7 -16.6 -36.1 -20.9 -34.2 -24.9C-32.4 -28.9 -29.2 -32.6 -25.5 -35.1C-21.7 -37.5 -17.3 -38.8 -13 -39.9C-8.6 -41.1 -4.3 -42.2 0 -43.3L0 0Z" fill="#6157de"></path><path d="M-21.7 0C-20.7 -2 -19.7 -4.1 -19 -6.2C-18.4 -8.3 -18.1 -10.4 -17.1 -12.4C-16.2 -14.4 -14.6 -16.3 -12.7 -17.5C-10.9 -18.8 -8.7 -19.4 -6.5 -20C-4.3 -20.6 -2.2 -21.1 0 -21.7L0 0Z" fill="#7f5af0"></path></g><g transform="translate(0, 0)"><path d="M130 0C124.9 12.1 119.8 24.2 117 38C114.2 51.8 113.7 67.4 105.2 76.4C96.6 85.5 80 88 67.6 93C55.2 98.1 47 105.6 36.5 112.2C25.9 118.8 13 124.4 0 130L0 0Z" fill="#001c34"></path><path d="M108.3 0C104.1 10.1 99.8 20.2 97.5 31.7C95.2 43.2 94.8 56.1 87.6 63.7C80.5 71.2 66.7 73.3 56.3 77.5C46 81.7 39.2 88 30.4 93.5C21.6 99 10.8 103.7 0 108.3L0 0Z" fill="#002e5e"></path><path d="M86.7 0C83.3 8.1 79.8 16.1 78 25.3C76.1 34.6 75.8 44.9 70.1 50.9C64.4 57 53.3 58.7 45.1 62C36.8 65.4 31.4 70.4 24.3 74.8C17.3 79.2 8.6 82.9 0 86.7L0 0Z" fill="#003f8a"></path><path d="M65 0C62.4 6 59.9 12.1 58.5 19C57.1 25.9 56.9 33.7 52.6 38.2C48.3 42.7 40 44 33.8 46.5C27.6 49 23.5 52.8 18.2 56.1C13 59.4 6.5 62.2 0 65L0 0Z" fill="#264db6"></path><path d="M43.3 0C41.6 4 39.9 8.1 39 12.7C38.1 17.3 37.9 22.5 35.1 25.5C32.2 28.5 26.7 29.3 22.5 31C18.4 32.7 15.7 35.2 12.2 37.4C8.6 39.6 4.3 41.5 0 43.3L0 0Z" fill="#6157de"></path><path d="M21.7 0C20.8 2 20 4 19.5 6.3C19 8.6 19 11.2 17.5 12.7C16.1 14.2 13.3 14.7 11.3 15.5C9.2 16.3 7.8 17.6 6.1 18.7C4.3 19.8 2.2 20.7 0 21.7L0 0Z" fill="#7f5af0"></path></g></svg>