<svg id="visual" viewBox="0 0 200 100" width="200" height="100" xmlns="http://www.w3.org/2000/svg" xmlns:xlink="http://www.w3.org/1999/xlink" version="1.1"><rect x="0" y="0" width="200" height="100" fill="#001220"></rect><g fill="#A7233A"><circle r="11" cx="15" cy="57"></circle><circle r="1" cx="95" cy="35"></circle><circle r="3" cx="185" cy="30"></circle><circle r="6" cx="26" cy="93"></circle><circle r="8" cx="153" cy="41"></circle><circle r="7" cx="49" cy="77"></circle><circle r="8" cx="94" cy="97"></circle><circle r="6" cx="151" cy="17"></circle><circle r="2" cx="180" cy="94"></circle><circle r="6" cx="123" cy="38"></circle><circle r="5" cx="3" cy="12"></circle><circle r="5" cx="138" cy="64"></circle><circle r="9" cx="96" cy="73"></circle><circle r="2" cx="119" cy="90"></circle><circle r="0" cx="35" cy="37"></circle><circle r="0" cx="39" cy="2"></circle><circle r="3" cx="58" cy="32"></circle><circle r="6" cx="126" cy="1"></circle><circle r="2" cx="73" cy="87"></circle><circle r="8" cx="172" cy="8"></circle><circle r="4" cx="177" cy="58"></circle><circle r="3" cx="53" cy="55"></circle><circle r="8" cx="87" cy="13"></circle><circle r="8" cx="142" cy="89"></circle><circle r="9" cx="196" cy="79"></circle><circle r="9" cx="3" cy="98"></circle><circle r="3" cx="4" cy="35"></circle><circle r="1" cx="159" cy="74"></circle><circle r="5" cx="76" cy="57"></circle><circle r="1" cx="63" cy="10"></circle><circle r="8" cx="197" cy="9"></circle><circle r="0" cx="109" cy="55"></circle><circle r="1" cx="198" cy="47"></circle></g></svg>