<svg id="visual" viewBox="0 0 200 100" width="200" height="100" xmlns="http://www.w3.org/2000/svg" xmlns:xlink="http://www.w3.org/1999/xlink" version="1.1"><path d="M0 13L18 10L36 10L55 16L73 7L91 9L109 8L127 18L145 11L164 17L182 8L200 8L200 0L182 0L164 0L145 0L127 0L109 0L91 0L73 0L55 0L36 0L18 0L0 0Z" fill="#00cc8e"></path><path d="M0 23L18 26L36 29L55 27L73 18L91 28L109 20L127 28L145 27L164 24L182 30L200 26L200 6L182 6L164 15L145 9L127 16L109 6L91 7L73 5L55 14L36 8L18 8L0 11Z" fill="#00b98a"></path><path d="M0 41L18 36L36 38L55 39L73 34L91 50L109 47L127 37L145 36L164 51L182 50L200 42L200 24L182 28L164 22L145 25L127 26L109 18L91 26L73 16L55 25L36 27L18 24L0 21Z" fill="#00a784"></path><path d="M0 65L18 52L36 67L55 56L73 69L91 66L109 72L127 75L145 52L164 83L182 78L200 62L200 40L182 48L164 49L145 34L127 35L109 45L91 48L73 32L55 37L36 36L18 34L0 39Z" fill="#00957c"></path><path d="M0 101L18 101L36 101L55 101L73 101L91 101L109 101L127 101L145 101L164 101L182 101L200 101L200 60L182 76L164 81L145 50L127 73L109 70L91 64L73 67L55 54L36 65L18 50L0 63Z" fill="#038373"></path></svg>