<svg id="visual" viewBox="0 0 200 100" width="200" height="100" xmlns="http://www.w3.org/2000/svg" xmlns:xlink="http://www.w3.org/1999/xlink" version="1.1"><g stroke-width="1" stroke-linejoin="bevel"><path d="M91.1 64L97.3 94L95.7 67Z" fill="#246688" stroke="#246688"></path><path d="M91.1 64L88.9 100L97.3 94Z" fill="#1d4e6b" stroke="#1d4e6b"></path><path d="M97.3 94L101.1 70L95.7 67Z" fill="#277297" stroke="#277297"></path><path d="M95.7 67L125.6 42L91.1 64Z" fill="#0c2435" stroke="#0c2435"></path><path d="M91.1 64L56.4 79L88.9 100Z" fill="#15384f" stroke="#15384f"></path><path d="M56.4 79L60.4 100L88.9 100Z" fill="#19435d" stroke="#19435d"></path><path d="M97.3 94L113.9 69L101.1 70Z" fill="#0c2435" stroke="#0c2435"></path><path d="M101.1 70L113.9 69L95.7 67Z" fill="#297ea6" stroke="#297ea6"></path><path d="M56.4 79L51.7 100L60.4 100Z" fill="#081a28" stroke="#081a28"></path><path d="M51.7 100L57.2 108L60.4 100Z" fill="#19435d" stroke="#19435d"></path><path d="M60.4 100L57.2 108L88.9 100Z" fill="#19435d" stroke="#19435d"></path><path d="M88.9 100L117.1 100L97.3 94Z" fill="#00101c" stroke="#00101c"></path><path d="M97.3 94L117.1 100L113.9 69Z" fill="#19435d" stroke="#19435d"></path><path d="M57.2 108L117.1 100L88.9 100Z" fill="#081a28" stroke="#081a28"></path><path d="M46.7 41L43.2 68L56.4 79Z" fill="#081a28" stroke="#081a28"></path><path d="M56.4 79L36.4 94L51.7 100Z" fill="#00101c" stroke="#00101c"></path><path d="M57.2 108L122.6 100L117.1 100Z" fill="#081a28" stroke="#081a28"></path><path d="M117.1 100L122.6 100L113.9 69Z" fill="#112e42" stroke="#112e42"></path><path d="M43.2 68L36.4 94L56.4 79Z" fill="#1d4e6b" stroke="#1d4e6b"></path><path d="M51.7 100L24.2 100L57.2 108Z" fill="#246688" stroke="#246688"></path><path d="M130.1 62L125.9 58L113.9 69Z" fill="#081a28" stroke="#081a28"></path><path d="M113.9 69L125.6 42L95.7 67Z" fill="#19435d" stroke="#19435d"></path><path d="M91.1 64L69.7 33L56.4 79Z" fill="#081a28" stroke="#081a28"></path><path d="M98.9 24L74.9 32L91.1 64Z" fill="#00101c" stroke="#00101c"></path><path d="M74.9 32L69.7 33L91.1 64Z" fill="#246688" stroke="#246688"></path><path d="M122.6 100L130.1 62L113.9 69Z" fill="#277297" stroke="#277297"></path><path d="M69.7 33L46.7 41L56.4 79Z" fill="#205a7a" stroke="#205a7a"></path><path d="M11.4 69L24.2 100L36.4 94Z" fill="#15384f" stroke="#15384f"></path><path d="M57.2 108L136.3 100L122.6 100Z" fill="#297ea6" stroke="#297ea6"></path><path d="M122.6 100L136.3 100L130.1 62Z" fill="#112e42" stroke="#112e42"></path><path d="M141.6 55L125.6 42L125.9 58Z" fill="#112e42" stroke="#112e42"></path><path d="M125.9 58L125.6 42L113.9 69Z" fill="#15384f" stroke="#15384f"></path><path d="M125.6 42L98.9 24L91.1 64Z" fill="#205a7a" stroke="#205a7a"></path><path d="M56.9 0L39.7 20L69.7 33Z" fill="#15384f" stroke="#15384f"></path><path d="M11.4 69L36.4 94L43.2 68Z" fill="#00101c" stroke="#00101c"></path><path d="M36.4 94L24.2 100L51.7 100Z" fill="#0c2435" stroke="#0c2435"></path><path d="M130.1 62L141.6 55L125.9 58Z" fill="#081a28" stroke="#081a28"></path><path d="M151.6 70L141.6 55L130.1 62Z" fill="#15384f" stroke="#15384f"></path><path d="M46.7 41L22.2 58L43.2 68Z" fill="#1d4e6b" stroke="#1d4e6b"></path><path d="M136.3 100L151.6 70L130.1 62Z" fill="#15384f" stroke="#15384f"></path><path d="M139.8 24L133.3 31L141.6 55Z" fill="#19435d" stroke="#19435d"></path><path d="M141.6 55L133.3 31L125.6 42Z" fill="#1d4e6b" stroke="#1d4e6b"></path><path d="M125.6 42L130.1 17L98.9 24Z" fill="#00101c" stroke="#00101c"></path><path d="M57.2 108L151.8 100L136.3 100Z" fill="#19435d" stroke="#19435d"></path><path d="M136.3 100L155.8 89L151.6 70Z" fill="#246688" stroke="#246688"></path><path d="M22.2 58L11.4 69L43.2 68Z" fill="#19435d" stroke="#19435d"></path><path d="M151.8 100L155.8 89L136.3 100Z" fill="#112e42" stroke="#112e42"></path><path d="M69.7 33L39.7 20L46.7 41Z" fill="#205a7a" stroke="#205a7a"></path><path d="M46.7 41L39.7 20L22.2 58Z" fill="#081a28" stroke="#081a28"></path><path d="M22.2 58L0 43L11.4 69Z" fill="#081a28" stroke="#081a28"></path><path d="M56.9 0L69.7 33L74.9 32Z" fill="#0c2435" stroke="#0c2435"></path><path d="M133.3 31L130.1 17L125.6 42Z" fill="#0c2435" stroke="#0c2435"></path><path d="M98.9 24L56.9 0L74.9 32Z" fill="#246688" stroke="#246688"></path><path d="M139.8 24L130.1 17L133.3 31Z" fill="#19435d" stroke="#19435d"></path><path d="M176.6 53L139.8 24L141.6 55Z" fill="#081a28" stroke="#081a28"></path><path d="M11.4 69L0 82L24.2 100Z" fill="#277297" stroke="#277297"></path><path d="M-9.8 65L0 82L11.4 69Z" fill="#205a7a" stroke="#205a7a"></path><path d="M0 82L0 100L24.2 100Z" fill="#205a7a" stroke="#205a7a"></path><path d="M24.2 100L0 100L57.2 108Z" fill="#0c2435" stroke="#0c2435"></path><path d="M96.3 -13L56.9 0L98.9 24Z" fill="#246688" stroke="#246688"></path><path d="M56.9 0L51.7 0L39.7 20Z" fill="#205a7a" stroke="#205a7a"></path><path d="M39.7 20L0 43L22.2 58Z" fill="#15384f" stroke="#15384f"></path><path d="M138.3 1L121.1 0L130.1 17Z" fill="#246688" stroke="#246688"></path><path d="M130.1 17L121.1 0L98.9 24Z" fill="#277297" stroke="#277297"></path><path d="M0 13L0 43L39.7 20Z" fill="#15384f" stroke="#15384f"></path><path d="M0 43L-9.8 65L11.4 69Z" fill="#246688" stroke="#246688"></path><path d="M0 82L-9.8 65L0 100Z" fill="#246688" stroke="#246688"></path><path d="M121.1 0L96.3 -13L98.9 24Z" fill="#00101c" stroke="#00101c"></path><path d="M56.9 0L21.4 -8L51.7 0Z" fill="#081a28" stroke="#081a28"></path><path d="M139.8 24L138.3 1L130.1 17Z" fill="#205a7a" stroke="#205a7a"></path><path d="M121.1 0L138.3 1L96.3 -13Z" fill="#297ea6" stroke="#297ea6"></path><path d="M147.6 0L138.3 1L139.8 24Z" fill="#112e42" stroke="#112e42"></path><path d="M176.6 53L141.6 55L151.6 70Z" fill="#00101c" stroke="#00101c"></path><path d="M200 72L176.6 53L155.8 89Z" fill="#112e42" stroke="#112e42"></path><path d="M155.8 89L176.6 53L151.6 70Z" fill="#1d4e6b" stroke="#1d4e6b"></path><path d="M165.3 0L147.6 0L139.8 24Z" fill="#19435d" stroke="#19435d"></path><path d="M138.3 1L147.6 0L96.3 -13Z" fill="#297ea6" stroke="#297ea6"></path><path d="M9.4 0L0 13L39.7 20Z" fill="#246688" stroke="#246688"></path><path d="M0 43L0 13L-9.8 65Z" fill="#00101c" stroke="#00101c"></path><path d="M21.4 -8L39.7 20L51.7 0Z" fill="#19435d" stroke="#19435d"></path><path d="M96.3 -13L21.4 -8L56.9 0Z" fill="#00101c" stroke="#00101c"></path><path d="M57.2 108L189.8 102L151.8 100Z" fill="#297ea6" stroke="#297ea6"></path><path d="M151.8 100L189.8 102L155.8 89Z" fill="#112e42" stroke="#112e42"></path><path d="M21.4 -8L9.4 0L39.7 20Z" fill="#081a28" stroke="#081a28"></path><path d="M21.4 -8L5.2 0L9.4 0Z" fill="#277297" stroke="#277297"></path><path d="M9.4 0L5.2 0L0 13Z" fill="#112e42" stroke="#112e42"></path><path d="M194.8 0L165.3 0L176.6 53Z" fill="#277297" stroke="#277297"></path><path d="M176.6 53L165.3 0L139.8 24Z" fill="#19435d" stroke="#19435d"></path><path d="M147.6 0L200 -15L96.3 -13Z" fill="#19435d" stroke="#19435d"></path><path d="M5.2 0L0 0L0 13Z" fill="#112e42" stroke="#112e42"></path><path d="M0 13L0 0L-9.8 65Z" fill="#15384f" stroke="#15384f"></path><path d="M21.4 -8L0 0L5.2 0Z" fill="#112e42" stroke="#112e42"></path><path d="M189.8 102L200 72L155.8 89Z" fill="#112e42" stroke="#112e42"></path><path d="M189.8 102L200 100L200 72Z" fill="#297ea6" stroke="#297ea6"></path><path d="M57.2 108L200 102L189.8 102Z" fill="#15384f" stroke="#15384f"></path><path d="M189.8 102L200 102L200 100Z" fill="#19435d" stroke="#19435d"></path><path d="M200 72L200 48L176.6 53Z" fill="#277297" stroke="#277297"></path><path d="M200 48L194.8 0L176.6 53Z" fill="#246688" stroke="#246688"></path><path d="M165.3 0L200 -15L147.6 0Z" fill="#246688" stroke="#246688"></path><path d="M200 72L200.8 2L200 48Z" fill="#0c2435" stroke="#0c2435"></path><path d="M200 48L200.8 2L194.8 0Z" fill="#1d4e6b" stroke="#1d4e6b"></path><path d="M200 100L200.8 2L200 72Z" fill="#297ea6" stroke="#297ea6"></path><path d="M200 102L200.8 2L200 100Z" fill="#15384f" stroke="#15384f"></path><path d="M200.8 2L200 0L194.8 0Z" fill="#277297" stroke="#277297"></path><path d="M194.8 0L200 -15L165.3 0Z" fill="#277297" stroke="#277297"></path><path d="M200.8 2L200 -15L200 0Z" fill="#205a7a" stroke="#205a7a"></path><path d="M200 0L200 -15L194.8 0Z" fill="#277297" stroke="#277297"></path></g></svg>