<svg id="visual" viewBox="0 0 200 100" width="200" height="100" xmlns="http://www.w3.org/2000/svg" xmlns:xlink="http://www.w3.org/1999/xlink" version="1.1"><rect x="0" y="0" width="200" height="100" fill="#002233"></rect><path d="M0 23L4.8 22C9.7 21 19.3 19 28.8 21C38.3 23 47.7 29 57.2 31.3C66.7 33.7 76.3 32.3 85.8 29.3C95.3 26.3 104.7 21.7 114.2 21C123.7 20.3 133.3 23.7 142.8 26C152.3 28.3 161.7 29.7 171.2 27.7C180.7 25.7 190.3 20.3 195.2 17.7L200 15L200 0L195.2 0C190.3 0 180.7 0 171.2 0C161.7 0 152.3 0 142.8 0C133.3 0 123.7 0 114.2 0C104.7 0 95.3 0 85.8 0C76.3 0 66.7 0 57.2 0C47.7 0 38.3 0 28.8 0C19.3 0 9.7 0 4.8 0L0 0Z" fill="#0066FF" stroke-linecap="round" stroke-linejoin="miter"></path></svg>